<svg xmlns="http://www.w3.org/2000/svg" viewBox="0 0 1200 560" width="1200" height="560">
<rect width="1200" height="560" fill="#ffffff" />
<defs><marker id="ah-ink" viewBox="0 0 10 10" refX="9" refY="5" markerWidth="7" markerHeight="7" orient="auto-start-reverse"><path d="M0 0 L10 5 L0 10 z" fill="#14161a" /></marker><marker id="ah-amber" viewBox="0 0 10 10" refX="9" refY="5" markerWidth="7" markerHeight="7" orient="auto-start-reverse"><path d="M0 0 L10 5 L0 10 z" fill="#8a5200" /></marker><marker id="ah-teal" viewBox="0 0 10 10" refX="9" refY="5" markerWidth="7" markerHeight="7" orient="auto-start-reverse"><path d="M0 0 L10 5 L0 10 z" fill="#0e7490" /></marker><marker id="ah-dim" viewBox="0 0 10 10" refX="9" refY="5" markerWidth="7" markerHeight="7" orient="auto-start-reverse"><path d="M0 0 L10 5 L0 10 z" fill="#6e737e" /></marker></defs>
<text x="60" y="38" font-family="'IBM Plex Sans', system-ui, sans-serif" font-size="17" font-weight="600" fill="#14161a" text-anchor="start">Por qué origen móvil y no una partición al azar</text>
<text x="60" y="60" font-family="'IBM Plex Sans', system-ui, sans-serif" font-size="12" font-weight="400" fill="#6e737e" text-anchor="start">en una serie de tiempo, partir al azar deja días futuros dentro del entrenamiento, y la métrica sale espectacular por la razón equivocada</text>
<text x="60" y="126" font-family="'IBM Plex Sans', system-ui, sans-serif" font-size="13.5" font-weight="600" fill="#14161a" text-anchor="start">Partición al azar</text>
<text x="60" y="146" font-family="'IBM Plex Sans', system-ui, sans-serif" font-size="11.5" font-weight="400" fill="#8a5200" text-anchor="start">el modelo aprende del futuro</text>
<rect x="300" y="112" width="12.5" height="34" rx="1" fill="#b4b9c2" stroke="none" stroke-width="1.2" />
<rect x="314" y="112" width="12.5" height="34" rx="1" fill="#b4b9c2" stroke="none" stroke-width="1.2" />
<rect x="328" y="112" width="12.5" height="34" rx="1" fill="#b4b9c2" stroke="none" stroke-width="1.2" />
<rect x="342" y="112" width="12.5" height="34" rx="1" fill="#b4b9c2" stroke="none" stroke-width="1.2" />
<rect x="356" y="112" width="12.5" height="34" rx="1" fill="#b4b9c2" stroke="none" stroke-width="1.2" />
<rect x="370" y="112" width="12.5" height="34" rx="1" fill="#b4b9c2" stroke="none" stroke-width="1.2" />
<rect x="384" y="112" width="12.5" height="34" rx="1" fill="#b4b9c2" stroke="none" stroke-width="1.2" />
<rect x="398" y="112" width="12.5" height="34" rx="1" fill="#8a5200" stroke="none" stroke-width="1.2" />
<rect x="412" y="112" width="12.5" height="34" rx="1" fill="#8a5200" stroke="none" stroke-width="1.2" />
<rect x="426" y="112" width="12.5" height="34" rx="1" fill="#8a5200" stroke="none" stroke-width="1.2" />
<rect x="440" y="112" width="12.5" height="34" rx="1" fill="#b4b9c2" stroke="none" stroke-width="1.2" />
<rect x="454" y="112" width="12.5" height="34" rx="1" fill="#b4b9c2" stroke="none" stroke-width="1.2" />
<rect x="468" y="112" width="12.5" height="34" rx="1" fill="#b4b9c2" stroke="none" stroke-width="1.2" />
<rect x="482" y="112" width="12.5" height="34" rx="1" fill="#b4b9c2" stroke="none" stroke-width="1.2" />
<rect x="496" y="112" width="12.5" height="34" rx="1" fill="#b4b9c2" stroke="none" stroke-width="1.2" />
<rect x="510" y="112" width="12.5" height="34" rx="1" fill="#b4b9c2" stroke="none" stroke-width="1.2" />
<rect x="524" y="112" width="12.5" height="34" rx="1" fill="#8a5200" stroke="none" stroke-width="1.2" />
<rect x="538" y="112" width="12.5" height="34" rx="1" fill="#b4b9c2" stroke="none" stroke-width="1.2" />
<rect x="552" y="112" width="12.5" height="34" rx="1" fill="#b4b9c2" stroke="none" stroke-width="1.2" />
<rect x="566" y="112" width="12.5" height="34" rx="1" fill="#b4b9c2" stroke="none" stroke-width="1.2" />
<rect x="580" y="112" width="12.5" height="34" rx="1" fill="#b4b9c2" stroke="none" stroke-width="1.2" />
<rect x="594" y="112" width="12.5" height="34" rx="1" fill="#b4b9c2" stroke="none" stroke-width="1.2" />
<rect x="608" y="112" width="12.5" height="34" rx="1" fill="#b4b9c2" stroke="none" stroke-width="1.2" />
<rect x="622" y="112" width="12.5" height="34" rx="1" fill="#8a5200" stroke="none" stroke-width="1.2" />
<rect x="636" y="112" width="12.5" height="34" rx="1" fill="#b4b9c2" stroke="none" stroke-width="1.2" />
<rect x="650" y="112" width="12.5" height="34" rx="1" fill="#b4b9c2" stroke="none" stroke-width="1.2" />
<rect x="664" y="112" width="12.5" height="34" rx="1" fill="#b4b9c2" stroke="none" stroke-width="1.2" />
<rect x="678" y="112" width="12.5" height="34" rx="1" fill="#8a5200" stroke="none" stroke-width="1.2" />
<rect x="692" y="112" width="12.5" height="34" rx="1" fill="#b4b9c2" stroke="none" stroke-width="1.2" />
<rect x="706" y="112" width="12.5" height="34" rx="1" fill="#b4b9c2" stroke="none" stroke-width="1.2" />
<rect x="720" y="112" width="12.5" height="34" rx="1" fill="#8a5200" stroke="none" stroke-width="1.2" />
<rect x="734" y="112" width="12.5" height="34" rx="1" fill="#b4b9c2" stroke="none" stroke-width="1.2" />
<rect x="748" y="112" width="12.5" height="34" rx="1" fill="#b4b9c2" stroke="none" stroke-width="1.2" />
<rect x="762" y="112" width="12.5" height="34" rx="1" fill="#b4b9c2" stroke="none" stroke-width="1.2" />
<rect x="776" y="112" width="12.5" height="34" rx="1" fill="#b4b9c2" stroke="none" stroke-width="1.2" />
<rect x="790" y="112" width="12.5" height="34" rx="1" fill="#b4b9c2" stroke="none" stroke-width="1.2" />
<rect x="804" y="112" width="12.5" height="34" rx="1" fill="#8a5200" stroke="none" stroke-width="1.2" />
<rect x="818" y="112" width="12.5" height="34" rx="1" fill="#b4b9c2" stroke="none" stroke-width="1.2" />
<rect x="832" y="112" width="12.5" height="34" rx="1" fill="#b4b9c2" stroke="none" stroke-width="1.2" />
<rect x="846" y="112" width="12.5" height="34" rx="1" fill="#b4b9c2" stroke="none" stroke-width="1.2" />
<rect x="860" y="112" width="12.5" height="34" rx="1" fill="#b4b9c2" stroke="none" stroke-width="1.2" />
<rect x="874" y="112" width="12.5" height="34" rx="1" fill="#b4b9c2" stroke="none" stroke-width="1.2" />
<rect x="888" y="112" width="12.5" height="34" rx="1" fill="#b4b9c2" stroke="none" stroke-width="1.2" />
<rect x="902" y="112" width="12.5" height="34" rx="1" fill="#8a5200" stroke="none" stroke-width="1.2" />
<rect x="916" y="112" width="12.5" height="34" rx="1" fill="#b4b9c2" stroke="none" stroke-width="1.2" />
<rect x="930" y="112" width="12.5" height="34" rx="1" fill="#b4b9c2" stroke="none" stroke-width="1.2" />
<rect x="944" y="112" width="12.5" height="34" rx="1" fill="#b4b9c2" stroke="none" stroke-width="1.2" />
<rect x="958" y="112" width="12.5" height="34" rx="1" fill="#8a5200" stroke="none" stroke-width="1.2" />
<rect x="972" y="112" width="12.5" height="34" rx="1" fill="#b4b9c2" stroke="none" stroke-width="1.2" />
<rect x="986" y="112" width="12.5" height="34" rx="1" fill="#b4b9c2" stroke="none" stroke-width="1.2" />
<rect x="1000" y="112" width="12.5" height="34" rx="1" fill="#8a5200" stroke="none" stroke-width="1.2" />
<rect x="1014" y="112" width="12.5" height="34" rx="1" fill="#b4b9c2" stroke="none" stroke-width="1.2" />
<rect x="1028" y="112" width="12.5" height="34" rx="1" fill="#8a5200" stroke="none" stroke-width="1.2" />
<rect x="1042" y="112" width="12.5" height="34" rx="1" fill="#8a5200" stroke="none" stroke-width="1.2" />
<rect x="1056" y="112" width="12.5" height="34" rx="1" fill="#b4b9c2" stroke="none" stroke-width="1.2" />
<rect x="1070" y="112" width="12.5" height="34" rx="1" fill="#8a5200" stroke="none" stroke-width="1.2" />
<rect x="1084" y="112" width="12.5" height="34" rx="1" fill="#b4b9c2" stroke="none" stroke-width="1.2" />
<rect x="1098" y="112" width="12.5" height="34" rx="1" fill="#b4b9c2" stroke="none" stroke-width="1.2" />
<rect x="1112" y="112" width="12.5" height="34" rx="1" fill="#b4b9c2" stroke="none" stroke-width="1.2" />
<rect x="1126" y="112" width="12.5" height="34" rx="1" fill="#b4b9c2" stroke="none" stroke-width="1.2" />
<text x="300" y="168" font-family="'IBM Plex Sans', system-ui, sans-serif" font-size="11" font-weight="400" fill="#6e737e" text-anchor="start">prueba en ámbar, entrenamiento en gris: están intercalados, así que el entrenamiento contiene días posteriores a los de prueba</text>
<text x="60" y="216" font-family="'IBM Plex Sans', system-ui, sans-serif" font-size="13.5" font-weight="600" fill="#14161a" text-anchor="start">Origen móvil</text>
<text x="60" y="236" font-family="'IBM Plex Sans', system-ui, sans-serif" font-size="11.5" font-weight="400" fill="#0e7490" text-anchor="start">cada corte reproduce</text>
<text x="60" y="252" font-family="'IBM Plex Sans', system-ui, sans-serif" font-size="11.5" font-weight="400" fill="#0e7490" text-anchor="start">la situación real</text>
<rect x="300" y="224" width="420" height="26" rx="2" fill="#b4b9c2" stroke="none" stroke-width="1.2" />
<rect x="722" y="224" width="58.800000000000004" height="26" rx="2" fill="#0e7490" stroke="none" stroke-width="1.2" />
<text x="510" y="241" font-family="'IBM Plex Sans', system-ui, sans-serif" font-size="11" font-weight="600" fill="#ffffff" text-anchor="middle">entrenamiento</text>
<text x="751.4000000000001" y="241" font-family="'IBM Plex Sans', system-ui, sans-serif" font-size="10" font-weight="600" fill="#ffffff" text-anchor="middle">7 d</text>
<text x="286" y="241" font-family="'IBM Plex Mono', ui-monospace, Menlo, monospace" font-size="11" font-weight="400" fill="#6e737e" text-anchor="end">origen 1</text>
<rect x="300" y="264" width="495.59999999999997" height="26" rx="2" fill="#b4b9c2" stroke="none" stroke-width="1.2" />
<rect x="797.5999999999999" y="264" width="58.800000000000004" height="26" rx="2" fill="#0e7490" stroke="none" stroke-width="1.2" />
<text x="286" y="281" font-family="'IBM Plex Mono', ui-monospace, Menlo, monospace" font-size="11" font-weight="400" fill="#6e737e" text-anchor="end">origen 2</text>
<rect x="300" y="304" width="571.1999999999999" height="26" rx="2" fill="#b4b9c2" stroke="none" stroke-width="1.2" />
<rect x="873.1999999999999" y="304" width="58.800000000000004" height="26" rx="2" fill="#0e7490" stroke="none" stroke-width="1.2" />
<text x="286" y="321" font-family="'IBM Plex Mono', ui-monospace, Menlo, monospace" font-size="11" font-weight="400" fill="#6e737e" text-anchor="end">origen 3</text>
<rect x="300" y="344" width="646.8000000000001" height="26" rx="2" fill="#b4b9c2" stroke="none" stroke-width="1.2" />
<rect x="948.8000000000001" y="344" width="58.800000000000004" height="26" rx="2" fill="#0e7490" stroke="none" stroke-width="1.2" />
<text x="286" y="361" font-family="'IBM Plex Mono', ui-monospace, Menlo, monospace" font-size="11" font-weight="400" fill="#6e737e" text-anchor="end">origen 4</text>
<rect x="300" y="384" width="722.4" height="26" rx="2" fill="#b4b9c2" stroke="none" stroke-width="1.2" />
<rect x="1024.4" y="384" width="58.800000000000004" height="26" rx="2" fill="#0e7490" stroke="none" stroke-width="1.2" />
<text x="286" y="401" font-family="'IBM Plex Mono', ui-monospace, Menlo, monospace" font-size="11" font-weight="400" fill="#6e737e" text-anchor="end">origen 5</text>
<text x="300" y="436" font-family="'IBM Plex Sans', system-ui, sans-serif" font-size="11.5" font-weight="400" fill="#565a63" text-anchor="start">y así 26 veces, una por semana. En cada una el modelo se reajusta con todo lo anterior al origen y pronostica los 7 días siguientes.</text>
<line x1="60" y1="486" x2="1140" y2="486" stroke="#d7dae0" stroke-width="1.4" stroke-linecap="round" />
<text x="60" y="512" font-family="'IBM Plex Sans', system-ui, sans-serif" font-size="12" font-weight="400" fill="#565a63" text-anchor="start">26 orígenes × 7 días = 182 pronósticos evaluados por modelo, de 2025-07-03 a 2025-12-25.</text>
<text x="60" y="534" font-family="'IBM Plex Sans', system-ui, sans-serif" font-size="12" font-weight="400" fill="#6e737e" text-anchor="start">El costo es tiempo de cómputo: cada origen exige reajustar el modelo entero. Es la diferencia entre medir un modelo y medir un experimento.</text>
</svg>